# xmcd CD database file
#
# Track frame offsets:
#	150
#	17318
#	31419
#	53400
#	78730
#	96134
#	108330
#	126834
#	146017
#	162770
#	179503
#	198699
#	215591
#
# Disc length: 3116 seconds
#
# Revision: 1
# Processed by: cddbd v1.5.2PL0 Copyright (c) Steve Scherf et al.
# Submitted via: CDex 1.70beta2
#
DISCID=af0c2a0d
DTITLE=Marshall and The Fro - Marshall and The Fro
DYEAR=2007
DGENRE=Blues
TTITLE0=Get Up (Raise Your Head)
TTITLE1=The Player
TTITLE2=Speed Ticket
TTITLE3=Something Better
TTITLE4=Sip and Taste
TTITLE5=Thongs
TTITLE6=Wicked Man
TTITLE7=Hard Times
TTITLE8=Soldiers
TTITLE9=Cats and Dogs
TTITLE10=Swamp Thang
TTITLE11=Sweet Lips
TTITLE12=Stuck In The Rut
EXTD=YEAR: 2007
EXTT0=
EXTT1=
EXTT2=
EXTT3=
EXTT4=
EXTT5=
EXTT6=
EXTT7=
EXTT8=
EXTT9=
EXTT10=
EXTT11=
EXTT12=
PLAYORDER=
